<?xml version="1.0" encoding="utf-8"?>
<!-- Generator: Adobe Illustrator 21.0.2, SVG Export Plug-In . SVG Version: 6.00 Build 0)  -->
<svg version="1.1" id="Layer_1" xmlns="http://www.w3.org/2000/svg" xmlns:xlink="http://www.w3.org/1999/xlink" x="0px" y="0px"
	 viewBox="0 0 240 240" style="enable-background:new 0 0 240 240;" xml:space="preserve">
<style type="text/css">
	.st0{fill:url(#SVGID_1_);}
	.st1{fill:#F37021;}
	.st2{fill:#FF7F18;}
</style>
<radialGradient id="SVGID_1_" cx="97.71" cy="155.714" r="143.432" gradientTransform="matrix(1 0 0 -1 0 240)" gradientUnits="userSpaceOnUse">
	<stop  offset="0" style="stop-color:#1C0A00;stop-opacity:0.85"/>
	<stop  offset="0.767" style="stop-color:#1C0A00"/>
</radialGradient>
<path class="st0" d="M10,13h220v214H10V13z"/>
<path class="st1" d="M0,3v234h240V3H0z M10,13h220v214H10V13z"/>
<path class="st2" d="M83.3,135.5l-7.9,30c-0.2,0.8-0.5,1-1.5,1H59.2c-1,0-1.2-0.3-1-1.5l28.4-99.4c0.5-1.8,0.8-3.4,1-8.3
	c0-0.7,0.3-1,0.8-1h21c0.7,0,1,0.2,1.2,1l31.8,107.9c0.2,0.8,0,1.3-0.8,1.3H125c-0.8,0-1.3-0.2-1.5-0.9l-8.3-30.1L83.3,135.5
	L83.3,135.5z M111.1,119.3c-2.8-11.1-9.4-35.3-11.9-47h-0.2c-2.1,11.7-7.4,31.5-11.6,47H111.1z M156.1,63.7
	c0-6.4,4.5-10.2,10.2-10.2c6.1,0,10.2,4.1,10.2,10.2c0,6.6-4.3,10.2-10.4,10.2C160.3,73.9,156.1,70.3,156.1,63.7L156.1,63.7z
	 M157.3,86.4c0-0.8,0.3-1.2,1.2-1.2h15.7c0.8,0,1.2,0.3,1.2,1.2v78.9c0,0.8-0.2,1.2-1.2,1.2h-15.5c-1,0-1.3-0.5-1.3-1.3V86.4z"/>
</svg>
