<?xml version="1.0" encoding="utf-8"?>
<!-- Generator: Adobe Illustrator 21.0.2, SVG Export Plug-In . SVG Version: 6.00 Build 0)  -->
<svg version="1.1" id="Layer_1" xmlns:sketch="http://www.bohemiancoding.com/sketch/ns"
	 xmlns="http://www.w3.org/2000/svg" xmlns:xlink="http://www.w3.org/1999/xlink" x="0px" y="0px" viewBox="0 0 420 420"
	 style="enable-background:new 0 0 420 420;" xml:space="preserve">
<style type="text/css">
	.st0{fill:#131313;}
	.st1{fill:#1572B6;}
	.st2{fill:#33A9DC;}
	.st3{fill:#FFFFFF;}
	.st4{fill:#EBEBEB;}
</style>
<title>Slice 1</title>
<description>Created with Sketch (http://www.bohemiancoding.com/sketch)</description>
<g id="Page_1">
	<g id="Layer_1_1_">
		<path id="Shape" class="st0" d="M294.2,15.7h-24.7l25.7,27.9v13.3h-52.9V41.3h25.7l-25.7-27.9V0.1h51.9V15.7L294.2,15.7z
			 M231.8,15.7h-24.7l25.7,27.9v13.3h-52.9V41.3h25.7l-25.7-27.9V0.1h51.9V15.7L231.8,15.7z M170,16.3h-26.6v24.3H170v16.2h-45.6
			V0.1H170V16.3L170,16.3z"/>
		<path id="Shape_1_" class="st1" d="M88.1,386.3L61.1,82.7h297.5l-27.1,303.6L209.6,420L88.1,386.3z"/>
		<path id="Shape_2_" class="st2" d="M209.8,394.2l98.4-27.3l23.2-259.4H209.8V394.2z"/>
		<g id="Group" transform="translate(55.000000, 142.000000)">
			<path id="Shape_3_" class="st3" d="M154.8,75.5h49.3l3.4-38.1h-52.7V0.1h0.1h93.2l-0.9,10l-9.2,102.6h-83.3V75.5z"/>
			<path id="Shape_4_" class="st4" d="M155,172.2l-0.2,0l-41.5-11.2l-2.7-29.7H90.6H73.4l5.2,58.5l76.3,21.2l0.2,0V172.2z"/>
			<path id="Shape_5_" class="st3" d="M200.9,111.2l-4.5,49.9l-41.5,11.2V211l76.3-21.2l0.6-6.3l6.5-72.4H200.9z"/>
			<path id="Shape_6_" class="st4" d="M154.9,0.1v23.1v14v0.1H65.1H65L64.2,29l-1.7-18.9l-0.9-10H154.9z"/>
			<path id="Shape_7_" class="st4" d="M154.8,75.5v23.1v14v0.1H114h-0.1l-0.7-8.4l-1.7-18.9l-0.9-10H154.8z"/>
		</g>
	</g>
</g>
</svg>
