<?xml version="1.0" encoding="utf-8"?>
<!-- Generator: Adobe Illustrator 21.0.2, SVG Export Plug-In . SVG Version: 6.00 Build 0)  -->
<svg version="1.1" id="Layer_2" xmlns="http://www.w3.org/2000/svg" xmlns:xlink="http://www.w3.org/1999/xlink" x="0px" y="0px"
	 viewBox="0 0 38 38" style="enable-background:new 0 0 38 38;" xml:space="preserve">
<path d="M4.4,19.5c-0.1,0.3-0.2,0.3-0.3,0L4,18.9c0,0-0.2-0.8-0.5-1.7C3.3,17,3.2,16.7,3,16.4c-0.3-0.3-0.7-0.4-1.1-0.3
	c-0.4,0.1-0.6,0.5-0.7,0.9c0,0.3,0,0.7,0.1,1c0.3,2,0.7,3.9,1.3,5.8C3,24.7,4,25.1,4.8,24.7c0,0,0,0,0.1,0c0.8-0.6,1.3-1.4,1.5-2.3
	c0.4-1,2.6-6.9,2.6-6.9c0.2-0.6,0.4-0.6,0.4,0.1c0,0-0.1,5.8-0.1,8.4c0,1.2,0.1,2.5,0.3,3.7c0.2,0.6,0.5,1.2,1,1.6
	c0.5,0.4,1.2,0.6,1.8,0.5c0.3,0,0.6-0.2,0.9-0.3c0.4-0.2,0.7-0.5,1-0.9c0.6-0.8,1.1-1.7,1.6-2.7c1-2,3.7-8.3,3.7-8.3
	C19.9,17,20,17,20,17.7c0,0-0.3,10.6-0.3,14.6c0,1,0.2,2,0.6,2.9c0.3,0.9,1,1.6,1.8,2c0.9,0.4,2,0.4,2.9-0.2c0.7-0.4,1.2-1,1.6-1.7
	c0.5-0.9,1-1.9,1.4-2.9c0.8-2.1,1.5-4.2,2.1-6.3s6.3-22.3,6.7-24c0.1-0.2,0.1-0.4,0.1-0.6c0-0.4-0.3-0.7-0.7-0.9
	c-0.6-0.3-1.4,0-1.7,0.6c-0.3,0.6-8,19.3-8,19.3c-0.2,0.6-0.4,0.5-0.4-0.1c0,0,0-6.5,0-11.9c0-2.9-1.4-4.6-3.4-4.9
	c-0.9-0.1-1.9,0.1-2.7,0.6c-0.8,0.6-1.5,1.3-1.9,2.2c-0.6,1.2-4.4,12.2-4.4,12.2c-0.2,0.6-0.4,0.6-0.4-0.1c0,0-0.1-4.7-0.2-5.9
	c-0.2-1.7-0.6-4.5-2.8-4.7c-2.1-0.1-3,2.4-3.6,4c-0.4,1-2.1,6.8-2.1,6.8L4.4,19.5"/>
</svg>
