<?xml version="1.0" encoding="utf-8"?>
<!-- Generator: Adobe Illustrator 21.0.2, SVG Export Plug-In . SVG Version: 6.00 Build 0)  -->
<svg version="1.1" id="Layer_2" xmlns="http://www.w3.org/2000/svg" xmlns:xlink="http://www.w3.org/1999/xlink" x="0px" y="0px"
	 viewBox="0 0 189 189" style="enable-background:new 0 0 189 189;" xml:space="preserve">
<style type="text/css">
	.st0{fill:#F47113;}
	.st1{fill:#FFFFFF;}
</style>
<g>
	<circle class="st0" cx="94.5" cy="94.5" r="89.9"/>
	<g>
		<path class="st1" d="M138.4,109.7c-1.3,7-3.8,13.1-9.8,17.4c-3.9,2.7-8.3,4.2-13.1,5c-7,1.3-14,1.7-20.2,1.6
			c-9.2,0-17.5-0.2-25.7-2.4c-8.7-2.3-14.9-7.3-17.7-16.2c-1.3-4.4-2.1-8.9-2.3-13.6C48.9,89.1,50.1,77,52.6,65
			c0.5-2.1,0.9-2.3,2.8-1.8c2.7,0.5,5.4,0.9,8.2,1.3c1.8,0.2,2.2,0.7,1.8,2.7c-0.9,5.6-1.7,11.3-2.3,16.8
			c-0.7,7.5-0.7,14.8,0.7,22.3c1.5,7.5,5.8,11.9,13.2,13c11.5,1.7,23,1.8,34.5-0.1c8.3-1.3,12-5.6,13.3-14
			c1.2-7.1,1.1-14.2,0.5-21.4c-0.5-5.6-1.5-11.3-2.3-16.8c-0.2-1.8,0-2.3,1.8-2.6c2.8-0.5,5.6-0.9,8.4-1.3c1.6-0.2,2.2,0.1,2.4,1.7
			c1.7,8,2.8,16,3.2,24.2C139.7,95.8,139.7,102.8,138.4,109.7z"/>
	</g>
</g>
</svg>
