<?xml version="1.0" encoding="utf-8"?>
<!-- Generator: Adobe Illustrator 18.1.1, SVG Export Plug-In . SVG Version: 6.00 Build 0)  -->
<svg version="1.1" id="Layer_1" xmlns="http://www.w3.org/2000/svg" xmlns:xlink="http://www.w3.org/1999/xlink" x="0px" y="0px"
	 viewBox="0 201 612 189" enable-background="new 0 201 612 189" xml:space="preserve">
<path fill="#FFFFFF" d="M226,292.2h-24.7v-24.7c0-1.1-0.9-1.9-1.9-1.9c-1.1,0-1.9,0.9-1.9,1.9v24.7h-24.7c-1.1,0-1.9,0.9-1.9,1.9
	c0,1.1,0.9,1.9,1.9,1.9h24.7v24.7c0,1.1,0.9,1.9,1.9,1.9c1.1,0,1.9-0.9,1.9-1.9v-24.7H226c1.1,0,1.9-0.9,1.9-1.9
	C228,293.1,227.1,292.2,226,292.2z"/>
<path fill="#FFFFFF" d="M439.5,280.2h30.2c1.1,0,2-0.9,2-2s-0.9-2-2-2h-28.9"/>
<path fill="#FFFFFF" d="M440.7,276.2h-25c-1.1,0-2,0.9-2,2s0.9,2,2,2h25"/>
<path fill="#FFFFFF" d="M439.5,311.2h30.2c1.1,0,2-0.9,2-2s-0.9-2-2-2h-28.9"/>
<path fill="#FFFFFF" d="M440.7,307.3h-25c-1.1,0-2,0.9-2,2s0.9,2,2,2h25"/>
<g>
	<circle fill="#F47113" cx="80.5" cy="293.6" r="73.5"/>
	<g>
		<path fill="#FFFFFF" d="M116.4,306c-1.1,5.7-3.1,10.7-8,14.2c-3.2,2.2-6.8,3.4-10.7,4.1c-5.7,1.1-11.4,1.4-16.5,1.3
			c-7.5,0-14.3-0.2-21-2c-7.1-1.9-12.2-6-14.5-13.2c-1.1-3.6-1.7-7.3-1.9-11.1c-0.6-10.1,0.4-20,2.5-29.8c0.4-1.7,0.7-1.9,2.3-1.5
			c2.2,0.4,4.4,0.7,6.7,1.1c1.5,0.2,1.8,0.6,1.5,2.2c-0.7,4.6-1.4,9.2-1.9,13.7c-0.6,6.1-0.6,12.1,0.6,18.2
			c1.2,6.1,4.7,9.7,10.8,10.6c9.4,1.4,18.8,1.5,28.2-0.1c6.8-1.1,9.8-4.6,10.9-11.4c1-5.8,0.9-11.6,0.4-17.5
			c-0.4-4.6-1.2-9.2-1.9-13.7c-0.2-1.5,0-1.9,1.5-2.1c2.3-0.4,4.6-0.7,6.9-1.1c1.3-0.2,1.8,0.1,2,1.4c1.4,6.5,2.3,13.1,2.6,19.8
			C117.4,294.7,117.4,300.4,116.4,306z"/>
	</g>
</g>
<circle fill="#FFFFFF" cx="319.7" cy="293.9" r="73.5"/>
<g>
	<circle fill="#F47113" cx="319.4" cy="329.1" r="7.7"/>
	<circle fill="#F47113" cx="285.6" cy="262.2" r="10"/>
	<circle fill="#F47113" cx="332.9" cy="239.4" r="3.4"/>
	<circle fill="#F47113" cx="354.6" cy="261.4" r="7.3"/>
	<circle fill="#F47113" cx="287.6" cy="312.6" r="5.3"/>
	<circle fill="#F47113" cx="359.8" cy="305.3" r="9.1"/>
	<path fill="#F47113" d="M355.9,319.4c-7.8-2.1-12.3-10.1-10.2-17.9c2.1-7.8,10.1-12.3,17.9-10.2c6.8,1.9,11.2,8.3,10.7,15.2
		l17.1,4.7c1.3-5.6,2-11.4,2-17.4c0.1-17.2-5.9-33.2-15.9-45.8l-12.3,8.7c2.3,5,0.7,11.1-3.9,14.4c-5.3,3.7-12.6,2.5-16.3-2.8
		c-3.7-5.3-2.5-12.6,2.8-16.3c4.7-3.3,10.9-2.7,14.9,1.1l12-8.5c-10-11.2-23.4-19.3-38.5-22.8l-1.6,12.6c2.4,0.8,4,3.2,3.7,5.8
		c-0.4,2.9-3.1,5-6,4.7c-2.9-0.4-5-3.1-4.7-6c0.3-2.6,2.4-4.5,5-4.7l1.6-12.7c-4.1-0.8-8.2-1.3-12.5-1.4
		c-23.6-0.6-44.6,9.9-58.5,26.5l10.3,5.6c4.8-5.7,13.1-7.5,19.9-3.8c7.7,4.2,10.5,13.9,6.3,21.6s-13.9,10.5-21.6,6.3
		c-6.8-3.7-9.8-11.7-7.5-18.8l-11.1-6.1c-8.2,11.6-13.1,25.6-13.4,40.6c-0.4,14.9,3.7,28.8,10.8,40.5l23-16.3
		c-1.7-3.6-0.5-8,2.8-10.4c3.8-2.7,9.1-1.8,11.9,2c2.7,3.8,1.8,9.1-2,11.9c-3.4,2.4-7.9,2-10.8-0.8L258.6,335
		c12.9,19,34.3,31.7,58.5,32.5L317,341c-5.7-1.1-9.9-6-9.9-12c0-6.8,5.5-12.3,12.2-12.3c6.8,0,12.3,5.5,12.3,12.2
		c0,6-4.2,10.9-9.9,12l0.1,26.5c32.1-0.9,58.8-22.3,68.1-51.2l-17.1-4.7C369.8,317.9,362.8,321.2,355.9,319.4z M336.7,298.2
		c-0.5,2.7-1.5,5.1-3.8,6.8c-1.5,1.1-3.3,1.6-5.1,2c-2.7,0.5-5.5,0.6-7.9,0.6c-3.6,0-6.8-0.1-10-1c-3.4-0.9-5.8-2.9-6.9-6.3
		c-0.5-1.7-0.8-3.5-0.9-5.3c-0.3-4.8,0.2-9.6,1.2-14.3c0.2-0.8,0.3-0.9,1.1-0.7c1.1,0.2,2.1,0.3,3.2,0.5c0.7,0.1,0.9,0.3,0.7,1.1
		c-0.3,2.2-0.7,4.4-0.9,6.6c-0.3,2.9-0.3,5.8,0.3,8.7c0.6,2.9,2.2,4.7,5.2,5.1c4.5,0.6,9,0.7,13.5,0c3.2-0.5,4.7-2.2,5.2-5.5
		c0.5-2.8,0.4-5.6,0.2-8.4c-0.2-2.2-0.6-4.4-0.9-6.6c-0.1-0.7,0-0.9,0.7-1c1.1-0.2,2.2-0.4,3.3-0.5c0.6-0.1,0.9,0,1,0.6
		c0.6,3.1,1.1,6.3,1.2,9.5C337.2,292.8,337.1,295.5,336.7,298.2z"/>
</g>
<g id="icomoon-ignore">
</g>
<g>
	<circle fill="#FFFFFF" stroke="#000000" stroke-miterlimit="10" cx="556" cy="293.3" r="16.7"/>
	<path fill="#F47113" d="M561.7,373.1c0,0,5.1-8.4,0.4-23.1c19.2-21.5,29.7-43.9,29.7-43.9s16.7,11.7,9.3,29.9
		C588.5,367.1,561.7,373.1,561.7,373.1z M515.4,341.5c0,0,3.7-44.6,10.4-61.1c3-7.4,6.5-13.6,10.2-19.1l56.2,22.8
		c-1.1,6.5-3,13.4-6,20.8c-6.6,16.2-35.1,51-35.1,51L515.4,341.5z M560.4,281.8c-6.3-2.6-13.5,0.5-16.1,6.8
		c-2.6,6.3,0.5,13.5,6.8,16.1c6.3,2.6,13.5-0.5,16.1-6.8C569.8,291.6,566.8,284.4,560.4,281.8z M578.7,229.7l6.3-15.6l4.5,1.8
		l-6.2,15.2c3.6,5.8,12.6,23.2,9.6,48.4l-54.2-22C553.7,237.8,571.6,231.5,578.7,229.7z M496,346.4c0,0-15.1-22.9-2.4-54.1
		c7.4-18.2,27.5-14.9,27.5-14.9s-8.1,23.4-9.3,52.2C498.1,336.8,496,346.4,496,346.4L496,346.4z"/>
	<path fill="#FFFFFF" d="M535.5,365.1l-2.2-5.3l-9,10.8l0.3-14.4l-5.9,5.2l0-13.6l25.7,10.4L535.5,365.1L535.5,365.1z"/>
</g>
</svg>
