<?xml version="1.0" encoding="utf-8"?>
<!-- Generator: Adobe Illustrator 21.0.2, SVG Export Plug-In . SVG Version: 6.00 Build 0)  -->
<svg version="1.1" id="Layer_3" xmlns="http://www.w3.org/2000/svg" xmlns:xlink="http://www.w3.org/1999/xlink" x="0px" y="0px"
	 viewBox="0 0 190 190" style="enable-background:new 0 0 190 190;" xml:space="preserve">
<style type="text/css">
	.st0{fill:#689F63;}
</style>
<g>
	<g>
		<g id="g3373" transform="translate(296.9532,165.0556)">
			<path id="path3375" class="st0" d="M-202,3c-1.9,0-3.8-0.5-5.5-1.5l-17.5-10.6c-2.6-1.5-1.3-2-0.5-2.3c3.5-1.2,4.2-1.5,7.9-3.7
				c0.4-0.2,0.9-0.1,1.3,0.1l13.4,8.2c0.5,0.3,1.2,0.3,1.6,0l52.4-30.9c0.5-0.3,0.8-0.9,0.8-1.4V-101c0-0.6-0.3-1.2-0.8-1.5
				l-52.3-30.9c-0.5-0.3-1.1-0.3-1.6,0l-52.3,30.9c-0.5,0.3-0.8,0.9-0.8,1.5v61.8c0,0.6,0.3,1.2,0.8,1.4l14.3,8.5
				c7.8,4,12.5-0.7,12.5-5.4v-61c0-0.9,0.7-1.5,1.5-1.5h6.6c0.8,0,1.5,0.7,1.5,1.5v61c0,10.6-5.7,16.7-15.5,16.7
				c-3,0-5.4,0-12.1-3.4l-13.7-8.1c-3.4-2-5.5-5.8-5.5-9.8V-101c0-4,2.1-7.8,5.5-9.8l52.4-30.9c3.3-1.9,7.7-1.9,11,0l52.3,30.9
				c3.4,2,5.5,5.7,5.5,9.8v61.8c0,4-2.1,7.7-5.5,9.8l-52.3,30.9C-198.1,2.5-200,3-202,3"/>
		</g>
		<g id="g3377" transform="translate(309.2934,196.8184)">
			<path id="path3379" class="st0" d="M-198.1-71.3c-22.9,0-27.7-10.8-27.7-19.8c0-0.9,0.7-1.5,1.5-1.5h6.8c0.8,0,1.4,0.6,1.5,1.3
				c1,7,4.1,10.6,17.9,10.6c11,0,15.7-2.6,15.7-8.5c0-3.4-1.3-6-18.5-7.7c-14.3-1.4-23.2-4.7-23.2-16.4c0-10.8,8.9-17.2,23.8-17.2
				c16.8,0,25.1,6,26.1,18.7c0,0.4-0.1,0.9-0.4,1.2c-0.3,0.3-0.7,0.5-1.1,0.5h-6.8c-0.7,0-1.3-0.5-1.5-1.2
				c-1.6-7.4-5.6-9.8-16.3-9.8c-12,0-13.4,4.3-13.4,7.5c0,3.9,1.7,5,17.9,7.2c16.1,2.2,23.7,5.3,23.7,16.8
				C-172-78-181.5-71.3-198.1-71.3"/>
		</g>
	</g>
	<g id="g3381" transform="translate(357.9388,245.6999)">
		<path id="path3383" class="st0" d="M-185.7-195.6h1.8c1.4,0,1.7-1,1.7-1.6c0-1.6-1.1-1.6-1.7-1.6h-1.8V-195.6z M-187.8-200.7h3.9
			c1.3,0,4,0,4,3.1c0,2.1-1.3,2.6-2.1,2.8c1.6,0.1,1.7,1.1,1.9,2.6c0.1,0.9,0.3,2.5,0.6,3.1h-2.4c-0.1-0.5-0.4-3.5-0.4-3.7
			c-0.2-0.7-0.4-1-1.2-1h-2v4.6h-2.2C-187.8-189.1-187.8-200.7-187.8-200.7z M-192.5-194.9c0,4.8,3.8,8.7,8.4,8.7
			c4.7,0,8.5-4,8.5-8.7c0-4.8-3.8-8.6-8.5-8.6C-188.6-203.5-192.5-199.8-192.5-194.9 M-173.9-194.9c0,5.7-4.5,10.3-10.1,10.3
			c-5.5,0-10.1-4.6-10.1-10.3c0-5.8,4.7-10.3,10.1-10.3C-178.6-205.2-173.9-200.7-173.9-194.9"/>
	</g>
</g>
</svg>
