<?xml version="1.0" encoding="utf-8"?>
<!-- Generator: Adobe Illustrator 21.0.2, SVG Export Plug-In . SVG Version: 6.00 Build 0)  -->
<svg version="1.1" id="Layer_2" xmlns="http://www.w3.org/2000/svg" xmlns:xlink="http://www.w3.org/1999/xlink" x="0px" y="0px"
	 viewBox="0 0 35 35" style="enable-background:new 0 0 35 35;" xml:space="preserve">
<style type="text/css">
	.st0{fill:#68C52F;}
</style>
<path class="st0" d="M3.5,26.6l7,4v-8.1L3.5,26.6z M20.6,16.7l-2.9-1.7L11,11.2c-0.3-0.2-0.8-0.2-1,0l-6,3.4l-0.5,0.3l10.1,5.8
	l0,11.7l6-3.4l0.5-0.3c0.3-0.2,0.5-0.6,0.5-0.9L20.6,16.7z M31.5,11.1v15c0,0.3-0.2,0.7-0.5,0.9l-0.5,0.3l-3.7,2.2l-2.5,1.5
	l-0.5,0.3V14.9l-14-8.1L16.4,3L17,2.7c0.3-0.2,0.8-0.2,1,0L27.2,8l4.3,2.5L31.5,11.1"/>
</svg>
