<svg xmlns="http://www.w3.org/2000/svg" viewBox="0 0 346.66666 47.426666" height="35" width="257"><defs><clipPath id="a"><path d="M0 355.73V0h2600v355.73z"/></clipPath></defs><g clip-path="url(#a)" transform="matrix(.13333 0 0 -.13333 0 47.427)"><path d="M0 111.035L71.102 69.96v82.177zm173.906 100.43l-29.18 16.855-68.28 39.442c-2.91 1.672-7.665 1.672-10.587 0l-60.58-34.97L0 229.735l102.773-59.343.02-118.702 60.487 34.95 5.325 3.067c2.918 1.688 5.3 5.82 5.3 9.18zm110.723 57.793V117.156c0-3.38-2.384-7.5-5.294-9.168l-4.98-2.89-37.903-21.867-25.6-14.785-5.294-3.054v164.325L63.253 311.883l67.598 39.02 6.18 3.566c2.91 1.682 7.695 1.682 10.605 0l93.758-54.138 43.234-24.96v-6.114" fill="#68c52f"/><path d="M1478.81 111.785c0-24.52-20.36-49.277-65.82-49.277-40.24 0-64.17 17.422-67.38 49.035l-.35 3.25h31.37l.47-2.352c3.84-19.014 21.95-23 36.47-23 15.91 0 32.89 5.138 32.89 19.505 0 7.285-4.74 12.45-14.07 15.37-5.55 1.642-12.36 3.564-19.57 5.568-12.39 3.476-25.22 7.09-33.11 9.805-19.57 7.01-30.79 20.652-30.79 37.44 0 31.095 30.26 45.01 60.25 45.01 40.11 0 60.86-15.107 63.46-46.16l.27-3.216-30.9.03-.43 2.45c-3.11 17.883-20.89 20.56-31.23 20.56-8.9 0-29.65-1.59-29.65-16.38 0-6.72 5.75-11.66 17.55-15.086 3.53-.988 8.76-2.332 14.85-3.906 12.56-3.254 28.24-7.317 36.14-10.04 19.62-6.913 29.58-19.894 29.58-38.605m-147.18 0c0-24.52-20.35-49.277-65.84-49.277-40.21 0-64.16 17.422-67.37 49.035l-.34 3.25h31.35l.48-2.352c3.85-19.014 21.96-23 36.48-23 15.9 0 32.9 5.138 32.9 19.505 0 7.285-4.75 12.45-14.08 15.37-5.55 1.642-12.36 3.564-19.56 5.568-12.41 3.476-25.24 7.09-33.14 9.805-19.56 7.01-30.78 20.652-30.78 37.44 0 31.095 30.27 45.01 60.25 45.01 40.11 0 60.86-15.107 63.47-46.16l.26-3.216-30.9.03-.43 2.45c-3.11 17.883-20.88 20.56-31.23 20.56-8.91 0-29.64-1.59-29.64-16.38 0-6.72 5.73-11.66 17.54-15.086 3.53-.988 8.78-2.332 14.84-3.906 12.58-3.254 28.25-7.317 36.14-10.04 19.65-6.913 29.6-19.894 29.6-38.605m-475.802-18.81c-11.14 0-37.02 5.05-37.02 51.757 0 30.696 14.512 49.77 37.864 49.77 18.047 0 37.32-13.07 37.32-49.77 0-32.398-14.265-51.757-38.164-51.757m39.008 113.652c-10.285 10.663-24.016 16.054-40.996 16.054-46.75 0-68.04-41.14-68.04-79.356 0-39.226 21.048-78.808 68.04-78.808 15.68 0 29.683 5.773 39.78 16.144-.112-6.785-.292-13.273-.475-16.027-1.74-25.438-13.957-37.285-38.457-37.285-13.34 0-28.633 4.726-31.59 18.007l-.65 2.94-31.4-.01.507-4.208C794.845 16.894 818.723 0 853.84 0c30.816 0 52.754 11.62 63.418 33.563C922.402 44.14 925 59.558 925 79.374v140.203h-30.164zm180.884-46.794c2.69 21.363 17.32 34.937 38.11 34.937 15.89 0 34.69-9.238 37.32-34.937zm75.41-45.043l-.59-1.688c-6.65-18.964-22.55-22.94-34.73-22.94-24.11 0-39.63 16.007-41.14 42.003h109.04l.4 3.027c.48 3.575.4 8.594.34 12.274 0 .995-.03 1.905-.03 2.784-1.59 43.164-29.73 72.168-70.03 72.168-23.53 0-42.83-9.25-55.8-26.758-10.48-14.172-16.51-33.762-16.51-53.75 0-47.656 29.64-79.68 73.73-79.68 34.11 0 57.6 17.336 66.16 48.8l1.03 3.76zm-114.44 103.574l2.61-1.258-5.86-31.036-4.03 1.23a33.497 33.497 0 0 1-9.93 1.532c-32.136 0-34.746-25.606-34.746-56.57V65.36H952.87v154.218h29.884v-18.6c8.125 12.506 17.966 18.963 30.906 20.553 8.48.978 16.73-.182 23.03-3.163M695.203 90.43c-24.937 0-40.43 19.843-40.43 51.765 0 32.258 15.493 52.31 40.43 52.31 24.738 0 40.715-20.294 40.715-51.75 0-32.267-15.606-52.325-40.715-52.325m0 132.254c-25.086 0-45.164-9.55-58.1-27.618-13.58-18.964-15.587-41.27-15.587-52.87 0-48.74 28.906-80.223 73.687-80.223 54.406 0 73.703 43.828 73.703 81.355 0 21.582-6.394 41.176-17.988 55.168-13.137 15.82-32.402 24.188-55.715 24.188m-78.328-4.317l2.598-1.258-5.84-31.036-4.016 1.23c-3.29 1.016-6.637 1.532-9.937 1.532-32.14 0-34.77-25.606-34.77-56.57V65.36h-31.863v154.218h29.875v-18.6c8.133 12.506 17.97 18.963 30.906 20.553 8.484.978 16.746-.182 23.047-3.163m-137.41-6.523c0-23.68-12.285-33.34-42.422-33.34h-38.88v65.85h43.42c25.507 0 37.882-10.635 37.882-32.51M441.3 275.37h-77.55V65.36h34.414v82.42h43.418c46.992 0 72.87 22.95 72.87 64.65 0 18.918-7.14 62.94-73.15 62.94" fill="#44474d"/><path d="M1565.01 102.86c19.83-17.82 40.01-24.54 63.89-24.54 29.59 0 48.41 14.793 48.41 38.66 0 20.852-11.76 29.258-36.98 40.024l-30.26 12.77c-21.53 9.08-44.73 21.523-44.73 52.792 0 34.973 29.26 52.454 62.55 52.454 21.51 0 42.7-6.387 57.83-17.48v-19.173c-16.14 13.45-34.29 20.852-57.5 20.852-25.55 0-46.06-12.11-46.06-36.322 0-20.175 14.12-28.914 35.97-37.656l31.95-13.457c30.26-13.105 44.05-27.898 44.05-54.46 0-32.962-27.58-54.817-65.23-54.817-27.57 0-50.44 8.75-63.89 20.52v19.83m167.81-37.322h-16.8v149.3h16.8zm-8.41 183.254c-6.38 0-11.42 5.046-11.42 11.433 0 6.054 5.04 11.437 11.42 11.437 6.4 0 11.44-5.383 11.44-11.437 0-6.387-5.04-11.434-11.44-11.434m73.77-183.253h-16.8V200.37h-31.95v14.466h31.95v38.328h16.8v-38.328h35.32V200.37h-35.32V65.536m54.78 87.094h90.45c-1.01 26.225-13.45 50.436-43.04 50.436-24.55 0-43.38-18.156-47.41-50.437zm53.8-75.325c16.81 0 29.26 4.03 42.03 14.793V75.625c-11.09-9.074-25.89-13.117-43.38-13.117-41.69 0-69.6 29.59-69.6 76.328 0 46.074 24.88 79.023 64.56 79.023 39.01 0 59.18-29.59 59.18-72.97v-6.054h-107.26c0-40.34 23.53-61.53 54.47-61.53m140.41 191.328c-4.37 2.35-9.42 3.7-15.13 3.7-15.81 0-27.24-11.435-27.24-32.286v-25.21h34.98V200.37h-34.98V65.536h-16.47V200.37h-24.21v14.466h24.21v26.89c0 27.24 17.82 45.403 42.02 45.403 6.4 0 11.78-1.017 16.82-3.028v-15.47m30.25-203.096h-16.8v149.3h16.8zm-8.4 183.254c-6.38 0-11.43 5.046-11.43 11.433 0 6.054 5.05 11.437 11.43 11.437 6.39 0 11.43-5.383 11.43-11.437 0-6.387-5.04-11.434-11.43-11.434m40.88-33.952h16.82v-23.88c9.08 14.122 26.56 26.903 47.74 26.903 33.97 0 51.79-21.856 51.79-53.465v-98.86h-16.47v96.504c0 23.202-11.78 40.35-38.34 40.35-20.51 0-37.33-14.46-44.72-32.273V65.535h-16.82v149.3m164.52-149.3h-16.8v149.3h16.8zm-8.39 183.254c-6.4 0-11.44 5.046-11.44 11.433 0 6.054 5.04 11.437 11.44 11.437 6.38 0 11.42-5.383 11.42-11.437 0-6.387-5.04-11.434-11.42-11.434m73.76-183.253h-16.81V200.37h-31.94v14.466h31.94v38.328h16.81v-38.328h35.31V200.37h-35.31V65.536m78.37-57.156l24.21 59.18-58.5 147.276h17.82l49.09-126.43 49.09 126.43h17.15L2434.98 8.38h-16.82m166.47 208.405l-8.64 12.96v-19.804h-6.24v30.498h5.88l9.24-14.286 9.37 14.286h5.76V209.94h-6.24v19.806l-8.53-12.96zM2539 240.438h26.06v-5.528h-9.73v-24.97h-6.48v24.97H2539v5.528" fill="#76848d"/><path d="M1505.11 231.426h-3.61v-5.168h3.61c1.91 0 3 .97 3 2.53 0 1.552-1.09 2.638-3 2.638m-3.61-10.324v-7.325h-6.48v23.047h10.8c5.17 0 8.53-2.996 8.53-8.035 0-3.606-1.68-6.01-4.45-6.966l5.29-8.047h-7.2l-4.45 7.325zm2.52 22.324c-9.84 0-17.76-7.56-17.76-18.242 0-10.68 7.92-18.243 17.76-18.243 9.85 0 17.77 7.564 17.77 18.244 0 10.683-7.92 18.242-17.77 18.242m0-40.203c-11.88 0-21.73 9.238-21.73 21.96 0 12.727 9.85 21.965 21.73 21.965 11.89 0 21.73-9.238 21.73-21.964 0-12.723-9.84-21.96-21.73-21.96" fill="#44474d"/></g></svg>