<?xml version="1.0" encoding="utf-8"?>
<!-- Generator: Adobe Illustrator 21.0.2, SVG Export Plug-In . SVG Version: 6.00 Build 0)  -->
<svg version="1.1"
	 id="Layer_1" inkscape:export-xdpi="76.235291" inkscape:export-ydpi="76.235291" inkscape:output_extension="org.inkscape.output.svg.inkscape" inkscape:version="0.48.0 r9654" sodipodi:version="0.32" xmlns:cc="http://creativecommons.org/ns#" xmlns:dc="http://purl.org/dc/elements/1.1/" xmlns:inkscape="http://www.inkscape.org/namespaces/inkscape" xmlns:rdf="http://www.w3.org/1999/02/22-rdf-syntax-ns#" xmlns:sodipodi="http://sodipodi.sourceforge.net/DTD/sodipodi-0.dtd" xmlns:svg="http://www.w3.org/2000/svg"
	 xmlns="http://www.w3.org/2000/svg" xmlns:xlink="http://www.w3.org/1999/xlink" x="0px" y="0px" viewBox="0 0 822 822"
	 style="enable-background:new 0 0 822 822;" xml:space="preserve">
<style type="text/css">
	.st0{fill:none;}
	.st1{fill:url(#rect12413_1_);stroke:#888A85;stroke-width:17.2403;}
	.st2{opacity:0.1705;enable-background:new    ;}
	.st3{fill:url(#path2210_1_);stroke:#888A85;stroke-width:15.6446;}
	.st4{opacity:0.3693;fill:none;stroke:url(#path2247_1_);stroke-width:15.6446;enable-background:new    ;}
	.st5{fill:#CE5C00;stroke:#CE5C00;stroke-width:16.9787;stroke-linecap:round;stroke-linejoin:round;}
	.st6{fill:#F57900;stroke:#FCAF3E;stroke-width:14.8563;stroke-linejoin:round;}
	.st7{fill:#FFFFFF;stroke:#FFFFFF;stroke-width:7.6761;}
</style>
<defs>
	
	
		<inkscape:perspective  id="perspective31019" inkscape:persp3d-origin="372.04724 : 350.78739 : 1" inkscape:vp_x="0 : 526.18109 : 1" inkscape:vp_y="0 : 1000 : 0" inkscape:vp_z="744.09448 : 526.18109 : 1" sodipodi:type="inkscape:persp3d">
		</inkscape:perspective>
	
		<inkscape:perspective  id="perspective3682" inkscape:persp3d-origin="372.04724 : 350.78739 : 1" inkscape:vp_x="0 : 526.18109 : 1" inkscape:vp_y="0 : 1000 : 0" inkscape:vp_z="744.09448 : 526.18109 : 1" sodipodi:type="inkscape:persp3d">
		</inkscape:perspective>
	
		<inkscape:perspective  id="perspective4711" inkscape:persp3d-origin="372.04724 : 350.78739 : 1" inkscape:vp_x="0 : 526.18109 : 1" inkscape:vp_y="0 : 1000 : 0" inkscape:vp_z="744.09448 : 526.18109 : 1" sodipodi:type="inkscape:persp3d">
		</inkscape:perspective>
</defs>
<sodipodi:namedview  bordercolor="#666666" borderopacity="1.0" id="base" inkscape:current-layer="g6863" inkscape:cx="389.59166" inkscape:cy="473.08783" inkscape:document-units="px" inkscape:guide-bbox="true" inkscape:pageopacity="0.0" inkscape:pageshadow="2" inkscape:snap-global="false" inkscape:window-height="678" inkscape:window-maximized="0" inkscape:window-width="1273" inkscape:window-x="0" inkscape:window-y="0" inkscape:zoom="0.37493326" pagecolor="#ffffff" showgrid="false" showguides="true">
	<sodipodi:guide  id="guide2280" orientation="horizontal" position="545.21834"></sodipodi:guide>
	<sodipodi:guide  id="guide2282" orientation="vertical" position="156.53416,335.69977"></sodipodi:guide>
	<sodipodi:guide  id="guide2284" orientation="vertical" position="712.54005"></sodipodi:guide>
	<sodipodi:guide  id="guide2286" orientation="horizontal" position="133.17442"></sodipodi:guide>
	<sodipodi:guide  id="guide2491" orientation="horizontal" position="900.35012"></sodipodi:guide>
	<sodipodi:guide  id="guide2495" orientation="vertical" position="414.32041"></sodipodi:guide>
	<sodipodi:guide  id="guide2497" orientation="horizontal" position="154.80103"></sodipodi:guide>
	<sodipodi:guide  id="guide3687" orientation="horizontal" position="936.7739"></sodipodi:guide>
	<sodipodi:guide  id="guide3689" orientation="vertical" position="-66.018088"></sodipodi:guide>
	<sodipodi:guide  id="guide3691" orientation="horizontal" position="87.644702"></sodipodi:guide>
	<sodipodi:guide  id="guide3693" orientation="vertical" position="785.38759"></sodipodi:guide>
</sodipodi:namedview>
<g id="layer1" inkscape:groupmode="layer" inkscape:label="Ebene 1">
	<g id="flowRoot6830">
	</g>
	<g id="g6863" transform="matrix(1.1056529,0,0,1.1056529,-710.03876,-111.7333)">
		<g id="g92315">
			<rect id="rect2300" x="643.2" y="102.7" class="st0" width="768.8" height="768.8"/>
			
				<linearGradient id="rect12413_1_" gradientUnits="userSpaceOnUse" x1="754.2421" y1="807.6781" x2="767.7191" y2="787.172" gradientTransform="matrix(19.9697 0 0 19.2102 -14016.3633 -14959.9814)">
				<stop  offset="0" style="stop-color:#EEEEEC"/>
				<stop  offset="0.5993" style="stop-color:#EEEEEC"/>
				<stop  offset="0.8276" style="stop-color:#FFFFFF"/>
				<stop  offset="1" style="stop-color:#D3D7CF"/>
			</linearGradient>
			<path id="rect12413" inkscape:connector-curvature="0" sodipodi:nodetypes="ccccccccc" class="st1" d="M849.9,788.8h505.3
				c5.3,0,9.6-4.4,9.6-10V301.7c0-43.5-116.4-145.8-156.8-145.8H849.9c-5.3,0-9.6,4.4-9.6,10v613
				C840.3,784.4,844.6,788.8,849.9,788.8L849.9,788.8L849.9,788.8z"/>
			<rect id="rect2271" x="884.2" y="390.1" class="st2" width="371.9" height="35.4"/>
			<rect id="rect2273" x="884.2" y="458" class="st2" width="354" height="35.4"/>
			<rect id="rect2275" x="884.7" y="529" class="st2" width="318.3" height="35.4"/>
			<rect id="rect2277" x="885.1" y="602.6" class="st2" width="371.9" height="35.4"/>
			
				<linearGradient id="path2210_1_" gradientUnits="userSpaceOnUse" x1="767.8668" y1="789.1254" x2="765.5352" y2="791.8129" gradientTransform="matrix(16.2984 0 0 18.358 -11194.8105 -14291.5801)">
				<stop  offset="0" style="stop-color:#2E3436"/>
				<stop  offset="1" style="stop-color:#BABDB6"/>
			</linearGradient>
			<path id="path2210" inkscape:connector-curvature="0" sodipodi:nodetypes="cccc" class="st3" d="M1227.5,156.1
				c29.9-5.5,141.3,75.2,136.9,141.1c-23-40.2-70.1-21.4-130.7-24C1233.6,273.2,1239.4,164.4,1227.5,156.1L1227.5,156.1
				L1227.5,156.1z"/>
			
				<linearGradient id="path2247_1_" gradientUnits="userSpaceOnUse" x1="764.3477" y1="781.5637" x2="770.1634" y2="781.5637" gradientTransform="matrix(18.8539 0 0 15.8697 -13169.4443 -12154.7373)">
				<stop  offset="0" style="stop-color:#FFFFFF"/>
				<stop  offset="1" style="stop-color:#FFFFFF;stop-opacity:0"/>
			</linearGradient>
			<path id="path2247" inkscape:connector-curvature="0" sodipodi:nodetypes="cccc" class="st4" d="M1248.8,192.5
				c20.2,11.4,65.3,35.6,84.4,66.9c-23.5-11.3-43.5-3.5-84.1-3.2C1249.2,256.2,1251.6,205.4,1248.8,192.5z"/>
			<rect id="rect4950" x="664.7" y="290.9" class="st5" width="532.3" height="320.2"/>
			<path id="path6849" inkscape:connector-curvature="0" sodipodi:nodetypes="ccccc" class="st6" d="M679.4,595.6l501.7,0.1
				l-0.3-289.6l-501.6,0.3L679.4,595.6L679.4,595.6L679.4,595.6z"/>
			<g id="flowRoot3582" transform="matrix(1.5111622,0,0,1.8006318,2338.8381,-91.853651)">
				<path id="path3591" inkscape:connector-curvature="0" class="st7" d="M-1074.3,249.5h15.3l26.1,39l26.2-39h15.3l-33.8,50.4
					l36,54.6h-15.3l-29.5-44.6l-29.7,44.6h-15.3l37.5-56L-1074.3,249.5"/>
				<path id="path3593" inkscape:connector-curvature="0" class="st7" d="M-970.5,249.5h21.2l26.8,71.4l26.9-71.4h21.2v105h-13.9
					v-92.2l-27.1,72h-14.3l-27.1-72v92.2h-13.8V249.5"/>
				<path id="path3595" inkscape:connector-curvature="0" class="st7" d="M-846.2,249.5h14.2v93h51.1v12h-65.3V249.5"/>
			</g>
		</g>
	</g>
</g>
</svg>
